<svg width="29" height="22" viewBox="0 0 29 22" fill="none" xmlns="http://www.w3.org/2000/svg">
<path d="M23.6933 2.10666C21.92 1.28 20 0.679995 18 0.333329C17.9825 0.332768 17.965 0.336059 17.9489 0.34297C17.9328 0.349881 17.9184 0.360244 17.9067 0.373329C17.6667 0.813329 17.3867 1.38666 17.2 1.82666C15.0787 1.50666 12.9213 1.50666 10.8 1.82666C10.6133 1.37333 10.3333 0.813329 10.08 0.373329C10.0667 0.346662 10.0267 0.333329 9.98667 0.333329C7.98667 0.679995 6.08 1.28 4.29333 2.10666C4.28 2.10666 4.26667 2.11999 4.25333 2.13333C0.626668 7.55999 -0.373332 12.84 0.120001 18.0667C0.120001 18.0933 0.133334 18.12 0.160001 18.1333C2.56 19.8933 4.86667 20.96 7.14667 21.6667C7.18667 21.68 7.22667 21.6667 7.24 21.64C7.77333 20.9067 8.25333 20.1333 8.66667 19.32C8.69333 19.2667 8.66667 19.2133 8.61333 19.2C7.85333 18.9067 7.13333 18.56 6.42667 18.16C6.37333 18.1333 6.37333 18.0533 6.41333 18.0133C6.56 17.9067 6.70667 17.7867 6.85333 17.68C6.88 17.6533 6.92 17.6533 6.94667 17.6667C11.5333 19.76 16.48 19.76 21.0133 17.6667C21.04 17.6533 21.08 17.6533 21.1067 17.68C21.2533 17.8 21.4 17.9067 21.5467 18.0267C21.6 18.0667 21.6 18.1467 21.5333 18.1733C20.84 18.5867 20.1067 18.92 19.3467 19.2133C19.2933 19.2267 19.28 19.2933 19.2933 19.3333C19.72 20.1467 20.2 20.92 20.72 21.6533C20.76 21.6667 20.8 21.68 20.84 21.6667C23.1333 20.96 25.44 19.8933 27.84 18.1333C27.8667 18.12 27.88 18.0933 27.88 18.0667C28.4667 12.0267 26.9067 6.78666 23.7467 2.13333C23.7333 2.11999 23.72 2.10666 23.6933 2.10666ZM9.36 14.88C7.98667 14.88 6.84 13.6133 6.84 12.0533C6.84 10.4933 7.96 9.22666 9.36 9.22666C10.7733 9.22666 11.8933 10.5067 11.88 12.0533C11.88 13.6133 10.76 14.88 9.36 14.88ZM18.6533 14.88C17.28 14.88 16.1333 13.6133 16.1333 12.0533C16.1333 10.4933 17.2533 9.22666 18.6533 9.22666C20.0667 9.22666 21.1867 10.5067 21.1733 12.0533C21.1733 13.6133 20.0667 14.88 18.6533 14.88Z" fill="#3FFEF7"/>
</svg>
