<svg width="28" height="28" viewBox="0 0 28 28" fill="none" xmlns="http://www.w3.org/2000/svg">
<path d="M14 0.666672C6.64 0.666672 0.666672 6.64 0.666672 14C0.666672 21.36 6.64 27.3333 14 27.3333C21.36 27.3333 27.3333 21.36 27.3333 14C27.3333 6.64 21.36 0.666672 14 0.666672ZM20.1867 9.73334C19.9867 11.84 19.12 16.96 18.68 19.32C18.4933 20.32 18.12 20.6533 17.7733 20.6933C17 20.76 16.4133 20.1867 15.6667 19.6933C14.4933 18.92 13.8267 18.44 12.6933 17.6933C11.3733 16.8267 12.2267 16.3467 12.9867 15.5733C13.1867 15.3733 16.6 12.2667 16.6667 11.9867C16.6759 11.9443 16.6747 11.9002 16.6631 11.8584C16.6515 11.8166 16.6298 11.7782 16.6 11.7467C16.52 11.68 16.4133 11.7067 16.32 11.72C16.2 11.7467 14.3333 12.9867 10.6933 15.44C10.16 15.8 9.68 15.9867 9.25334 15.9733C8.77334 15.96 7.86667 15.7067 7.18667 15.48C6.34667 15.2133 5.69334 15.0667 5.74667 14.6C5.77334 14.36 6.10667 14.12 6.73334 13.8667C10.6267 12.1733 13.2133 11.0533 14.5067 10.52C18.2133 8.97334 18.9733 8.70667 19.48 8.70667C19.5867 8.70667 19.84 8.73334 20 8.86667C20.1333 8.97334 20.1733 9.12 20.1867 9.22667C20.1733 9.30667 20.2 9.54667 20.1867 9.73334Z" fill="#3FFEF7"/>
</svg>
