<svg width="28" height="23" viewBox="0 0 28 23" fill="none" xmlns="http://www.w3.org/2000/svg">
<path d="M27.9467 2.99999C26.92 3.46666 25.8133 3.77333 24.6667 3.91999C25.84 3.21333 26.7467 2.09333 27.1733 0.746661C26.0667 1.41333 24.84 1.87999 23.5467 2.14666C22.4933 0.999995 21.0133 0.333328 19.3333 0.333328C16.2 0.333328 13.64 2.89333 13.64 6.05333C13.64 6.50666 13.6933 6.94666 13.7867 7.35999C9.04 7.12 4.81333 4.83999 2 1.38666C1.50667 2.22666 1.22667 3.21333 1.22667 4.25333C1.22667 6.23999 2.22667 7.99999 3.77333 8.99999C2.82667 8.99999 1.94667 8.73333 1.17333 8.33333V8.37333C1.17333 11.1467 3.14667 13.4667 5.76 13.9867C4.92097 14.2163 4.04013 14.2482 3.18667 14.08C3.54881 15.2166 4.25805 16.2112 5.21469 16.9239C6.17133 17.6366 7.32726 18.0316 8.52 18.0533C6.49817 19.6539 3.992 20.5191 1.41333 20.5067C0.96 20.5067 0.506667 20.48 0.0533333 20.4267C2.58667 22.0533 5.6 23 8.82667 23C19.3333 23 25.1067 14.28 25.1067 6.71999C25.1067 6.46666 25.1067 6.22666 25.0933 5.97333C26.2133 5.17333 27.1733 4.15999 27.9467 2.99999Z" fill="#3FFEF7"/>
</svg>
